:version 1.10
:name ASF
:units
  mass 1
  length 1
  angle deg
:documentation
  ASF file generated by Kaydara
:root
  axis xyz
  order  tx ty tz rx ry rz
  position 0 0 0
  orientation 0 0 0
:bonedata
  begin
    id 1
    name RightUpLegDummy
    direction -0.65628 -0.754516 0.00165102
    length 4.76918
    axis 0 0 0 xyz
  end
  begin
    id 2
    name RightUpLeg
    direction -0.145584 -0.923362 0.355256
    length 17.9961
    axis -24.7611 -13.1006 1.78531 xyz
    dof rx ry rz
  end
  begin
    id 3
    name RightLeg
    direction 0.263379 0.172355 -0.949171
    length 13.3386
    axis 89.6202 -21.1929 12.3855 xyz
    dof rx ry rz
  end
  begin
    id 4
    name RightFoot
    direction 0.224283 -0.968777 -0.105675
    length 5.86697
    axis 56.995 -39.6905 17.3365 xyz
    dof rx ry rz
  end
  begin
    id 5
    name RightToes
    direction -0.0806345 -0.9037 0.420506
    length 4.75197
    axis 146.825 -39.7828 17.6019 xyz
    dof rx ry rz
  end
  begin
    id 6
    name SpineDummy
    direction -3.39852e-014 1 9.33296e-014
    length 8.13779
    axis 0 0 0 xyz
  end
  begin
    id 7
    name Spine
    direction -0.156609 0.733703 0.661176
    length 7.14978
    axis 41.2365 5.68757 17.0844 xyz
    dof rx ry rz
  end
  begin
    id 8
    name Spine1
    direction 0 0 0
    length 0
    axis 42.8809 47.8308 -3.36039 xyz
    dof rx ry rz
  end
  begin
    id 9
    name HEadDummy
    direction 0.546431 0.701947 0.456819
    length 3.55512
    axis 42.8809 47.8308 -3.36039 xyz
  end
  begin
    id 10
    name HEad
    direction 0.23444 0.828559 0.508457
    length 7.35827
    axis 51.1864 49.2662 27.4903 xyz
    dof rx ry rz
  end
  begin
    id 11
    name LeftShoulder1Dummy
    direction 0.431183 0.475873 -0.766568
    length 2.49352
    axis 42.8809 47.8308 -3.36039 xyz
  end
  begin
    id 12
    name LeftShoulder1
    direction 0.268187 -0.383402 -0.883786
    length 4.48604
    axis -119.517 0.106469 35.1736 xyz
    dof rx ry rz
  end
  begin
    id 13
    name LeftArm
    direction 0.380567 -0.703221 -0.600541
    length 10.1142
    axis -5.41825 36.2925 7.8293 xyz
    dof rx ry rz
  end
  begin
    id 14
    name LeftForeArm
    direction 0.541071 -0.732356 -0.413396
    length 9.39839
    axis 4.65387 33.7604 7.81644 xyz
    dof rx ry rz
  end
  begin
    id 15
    name LeftHand
    direction 0.847511 -0.389379 -0.360707
    length 3.66142
    axis 7.65593 21.1436 -24.6758 xyz
    dof rx ry rz
  end
  begin
    id 16
    name RightShoulderDummy
    direction -0.692546 0.541855 0.476208
    length 2.49352
    axis 42.8809 47.8308 -3.36039 xyz
  end
  begin
    id 17
    name RightShoulder
    direction -0.870808 -0.316653 0.376065
    length 4.48602
    axis 141.571 51.133 -100.254 xyz
    dof rx ry rz
  end
  begin
    id 18
    name RightArm
    direction 0.366897 -0.87275 0.322015
    length 10.1142
    axis 92.3258 71.2036 138.917 xyz
    dof rx ry rz
  end
  begin
    id 19
    name RightForeArm
    direction 0.702487 -0.694568 0.155197
    length 9.39835
    axis 153.863 41.5092 -176.604 xyz
    dof rx ry rz
  end
  begin
    id 20
    name RightHand
    direction 0.79502 -0.601276 0.0800636
    length 3.66142
    axis 154.247 4.59222 142.9 xyz
    dof rx ry rz
  end
  begin
    id 21
    name LeftUpLegDummy
    direction 0.65628 -0.754516 0.00165102
    length 4.76919
    axis 0 0 0 xyz
  end
  begin
    id 22
    name LeftUpLeg
    direction -0.1277 -0.689368 0.713067
    length 17.9961
    axis -48.3385 -17.8675 0.791927 xyz
    dof rx ry rz
  end
  begin
    id 23
    name LeftLeg
    direction 0.109849 -0.991246 -0.0732378
    length 13.3386
    axis -2.05791 -7.30784 1.72042 xyz
    dof rx ry rz
  end
  begin
    id 24
    name LeftFoot
    direction 0.0448355 -0.272614 0.961078
    length 5.86697
    axis -18.7733 -7.89606 10.2113 xyz
    dof rx ry rz
  end
  begin
    id 25
    name LeftToes
    direction -0.18506 0.293668 0.937823
    length 4.75197
    axis 71.2267 -7.89606 10.2113 xyz
    dof rx ry rz
  end
:hierarchy
  begin
    root RightUpLegDummy SpineDummy LeftUpLegDummy
    RightUpLegDummy RightUpLeg
    RightUpLeg RightLeg
    RightLeg RightFoot
    RightFoot RightToes
    SpineDummy Spine
    Spine Spine1
    Spine1 HEadDummy LeftShoulder1Dummy RightShoulderDummy
    HEadDummy HEad
    LeftShoulder1Dummy LeftShoulder1
    LeftShoulder1 LeftArm
    LeftArm LeftForeArm
    LeftForeArm LeftHand
    RightShoulderDummy RightShoulder
    RightShoulder RightArm
    RightArm RightForeArm
    RightForeArm RightHand
    LeftUpLegDummy LeftUpLeg
    LeftUpLeg LeftLeg
    LeftLeg LeftFoot
    LeftFoot LeftToes
  end

:SAMPLES-PER-SECOND 30
:FULLY-SPECIFIED
:DEGREES
402
root  -4.74101 35.5781 35.3153 -6.63706 20.3675 6.08081
RightUpLeg  5.40102 0.288411 0.967089
RightLeg  -30.8002 -26.485 2.90734
RightFoot  12.8491 3.40817 -11.9976
RightToes  -1.27222e-014 -6.36111e-015 6.36111e-015
Spine  -22.2278 -12.4561 -8.79589
Spine1  21.0811 -7.05569 21.5403
HEad  -8.26875 -32.6847 -10.805
LeftShoulder1  6.36111e-015 -1.33558e-015 6.49777e-015
LeftArm  31.8417 11.9964 -19.7008
LeftForeArm  -10.4487 -34.8372 3.93206
LeftHand  -1.80598 -2.32335 -15.2483
RightShoulder  -4.77083e-015 -6.36111e-015 -3.18055e-015
RightArm  30.6708 4.80979 -31.5602
RightForeArm  -64.7036 9.1387 -37.502
RightHand  -2.52416 13.4392 20.5036
LeftUpLeg  9.99761 27.6407 -5.54058
LeftLeg  -0.601819 -8.5206 -1.14153
LeftFoot  12.7782 -2.50634 5.87393
LeftToes  9.54166e-015 4.2066e-011 -8.07781e-011
403
root  -4.82848 35.976 36.2651 -6.4018 21.6478 6.193
RightUpLeg  4.52539 0.000984868 1.51511
RightLeg  -32.711 -25.0676 2.76044
RightFoot  10.3582 3.34183 -11.2108
RightToes  -1.27222e-014 -6.36111e-015 6.36111e-015
Spine  -23.2861 -12.5419 -8.45651
Spine1  22.3319 -7.09259 21.8513
HEad  -7.53529 -32.0765 -11.6861
LeftShoulder1  6.36111e-015 -1.33558e-015 6.49777e-015
LeftArm  31.6027 9.57161 -20.7341
LeftForeArm  -14.8054 -44.4226 9.86099
LeftHand  -0.925525 0.142013 -11.799
RightShoulder  -4.77083e-015 -6.36111e-015 -3.18055e-015
RightArm  29.4521 6.64793 -24.826
RightForeArm  -64.3222 10.6525 -41.1349
RightHand  -2.59027 12.5818 24.6345
LeftUpLeg  11.9628 27.8653 -5.23152
LeftLeg  -0.857662 -8.24978 -1.11283
LeftFoot  12.3196 -3.22721 7.66906
LeftToes  9.54166e-015 4.2066e-011 -8.07781e-011
404
root  -4.95169 36.5258 37.1632 -6.08207 22.5982 5.96551
RightUpLeg  6.2479 0.336002 2.45494
RightLeg  -40.9162 -26.1182 5.57929
RightFoot  11.4176 3.95693 -12.6215
RightToes  -1.27222e-014 -6.36111e-015 6.36111e-015
Spine  -23.3104 -12.233 -8.58365
Spine1  20.2584 -7.13925 22.2374
HEad  -3.61674 -32.4429 -12.1881
LeftShoulder1  6.36111e-015 -1.33558e-015 6.49777e-015
LeftArm  31.9357 8.19342 -22.0739
LeftForeArm  -18.9371 -52.4965 17.0547
LeftHand  -0.154965 1.98937 -9.16019
RightShoulder  -4.77083e-015 -6.36111e-015 -3.18055e-015
RightArm  28.846 7.2743 -16.0733
RightForeArm  -57.4592 13.1345 -42.5802
RightHand  -2.7435 10.6528 26.9094
LeftUpLeg  12.7605 28.4137 -3.56366
LeftLeg  0.77837 -9.50085 -1.31782
LeftFoot  14.8484 -2.61151 5.80872
LeftToes  9.54166e-015 4.2066e-011 -8.07781e-011
405
root  -5.08179 37.0222 38.0639 -5.85367 23.5012 4.7414
RightUpLeg  10.2934 0.977149 4.19835
RightLeg  -52.4538 -27.0436 10.5269
RightFoot  12.9959 5.25876 -15.3094
RightToes  -1.27222e-014 -6.36111e-015 6.36111e-015
Spine  -23.5429 -10.964 -8.39668
Spine1  16.3996 -6.91155 23.7192
HEad  1.48383 -33.5781 -12.9892
LeftShoulder1  6.36111e-015 -1.33558e-015 6.49777e-015
LeftArm  32.1931 6.95302 -23.9166
LeftForeArm  -24.5875 -56.0824 23.4491
LeftHand  -0.239237 1.62403 -8.89156
RightShoulder  -4.77083e-015 -6.36111e-015 -3.18055e-015
RightArm  29.2017 8.69783 -7.72966
RightForeArm  -46.2722 15.2304 -38.8463
RightHand  -2.77573 7.64609 24.3385
LeftUpLeg  11.1559 27.4684 -1.19236
LeftLeg  5.71818 -11.3068 -1.964
LeftFoot  21.6508 0.268815 -0.647817
LeftToes  9.54166e-015 4.2066e-011 -8.07781e-011
406
root  -5.16924 37.1886 39.044 -5.88769 24.3382 2.72451
RightUpLeg  16.2629 1.57121 6.14038
RightLeg  -62.2026 -24.3826 12.4198
RightFoot  10.8012 5.32835 -15.0088
RightToes  -1.27222e-014 -6.36111e-015 6.36111e-015
Spine  -25.0966 -8.69037 -7.6093
Spine1  12.928 -6.10386 26.6006
HEad  5.54639 -34.9841 -14.1939
LeftShoulder1  6.36111e-015 -1.33558e-015 6.49777e-015
LeftArm  32.1669 5.3204 -25.8923
LeftForeArm  -33.1433 -55.7375 29.0662
LeftHand  -0.80839 0.152106 -10.3859
RightShoulder  -4.77083e-015 -6.36111e-015 -3.18055e-015
RightArm  30.4664 11.8324 -0.665094
RightForeArm  -34.2401 14.5188 -30.8703
RightHand  -2.32613 3.66021 17.9168
LeftUpLeg  8.10769 24.9873 1.59345
LeftLeg  11.8877 -11.108 -2.49349
LeftFoot  26.8539 4.62179 -8.18831
LeftToes  9.54166e-015 4.2066e-011 -8.07781e-011
407
root  -5.1669 36.9799 40.0261 -6.16805 24.4457 0.657745
RightUpLeg  22.8665 1.8122 7.67418
RightLeg  -68.5579 -19.7226 9.24843
RightFoot  5.08176 4.79673 -12.6307
RightToes  -1.27222e-014 -6.36111e-015 6.36111e-015
Spine  -27.1814 -5.7695 -6.21917
Spine1  10.4579 -4.8416 28.5434
HEad  7.8635 -36.503 -15.2911
LeftShoulder1  6.36111e-015 -1.33558e-015 6.49777e-015
LeftArm  32.3544 2.98334 -27.3701
LeftForeArm  -43.9899 -53.8418 34.7473
LeftHand  -1.15501 -0.733594 -11.6182
RightShoulder  -4.77083e-015 -6.36111e-015 -3.18055e-015
RightArm  31.5693 15.1035 5.09708
RightForeArm  -23.8645 11.0033 -22.5564
RightHand  -1.56995 0.371864 12.2081
LeftUpLeg  5.17964 22.8275 4.86657
LeftLeg  16.3521 -7.39368 -1.38576
LeftFoot  24.2999 6.49646 -12.0263
LeftToes  9.54166e-015 4.2066e-011 -8.07781e-011
